<?xml version="1.0" standalone="no"?>
<!DOCTYPE svg PUBLIC "-//W3C//DTD SVG 20010904//EN"
 "http://www.w3.org/TR/2001/REC-SVG-20010904/DTD/svg10.dtd">
<svg version="1.0" xmlns="http://www.w3.org/2000/svg"
 width="500.000000pt" height="500.000000pt" viewBox="0 0 500.000000 500.000000"
 preserveAspectRatio="xMidYMid meet">
<metadata>
Created by potrace 1.11, written by Peter Selinger 2001-2013
</metadata>
<g transform="translate(0.000000,500.000000) scale(0.100000,-0.100000)"
fill="#000000" stroke="none">
<path d="M0 3150 l0 -1851 61 3 62 3 408 1100 c225 605 416 1119 425 1143 l16
43 136 -3 136 -3 301 -820 c166 -451 354 -965 419 -1142 l119 -323 79 0 79 0
-3 -32 -3 -33 -542 -3 -543 -2 0 35 0 35 115 0 c63 0 115 2 115 4 0 3 -54 163
-120 358 -66 194 -120 354 -120 355 0 2 -148 3 -329 3 l-329 0 -11 -27 c-22
-56 -241 -677 -241 -685 0 -4 54 -8 120 -8 l120 0 0 -35 0 -35 -235 0 -235 0
0 -615 0 -615 2500 0 2500 0 0 2500 0 2500 -2500 0 -2500 0 0 -1850z m3249
383 c5 -21 103 -398 216 -838 113 -440 209 -808 213 -818 5 -11 81 299 207
837 l199 856 443 0 443 0 0 -35 0 -35 -90 0 -90 0 0 -1100 0 -1100 90 0 90 0
0 -35 0 -35 -505 0 -505 0 0 35 0 35 90 0 90 0 0 1042 c0 599 -4 1038 -9 1033
-5 -6 -120 -487 -255 -1069 -136 -583 -250 -1064 -252 -1068 -3 -4 -97 -8
-209 -8 -153 0 -204 3 -207 13 -3 6 -135 492 -294 1079 -159 587 -292 1068
-296 1068 -5 0 -8 -470 -8 -1045 l0 -1045 90 0 90 0 0 -35 0 -35 -225 0 -225
0 0 35 0 35 90 0 90 0 0 1100 0 1100 -90 0 -90 0 0 35 0 35 450 0 449 0 10
-37z"/>
<path d="M813 2935 c-69 -194 -293 -814 -298 -827 -7 -17 11 -18 294 -18 166
0 301 3 301 8 0 4 -64 201 -143 437 -131 393 -144 427 -154 400z"/>
</g>
</svg>
